<svg width="14" height="15" fill="none" xmlns="http://www.w3.org/2000/svg"><path d="M11.67.5H2.314A2.321 2.321 0 0 0 0 2.815v9.37A2.321 2.321 0 0 0 2.315 14.5h9.37A2.321 2.321 0 0 0 14 12.185v-9.37A2.344 2.344 0 0 0 11.67.5Zm.776 2.315v1.228c0 .388-.31.699-.699.699h-1.29c-.388 0-.699-.31-.699-.7V2.754c0-.388.31-.7.7-.7h1.29c.388 0 .698.312.698.7v.062ZM9.65 7.492a2.656 2.656 0 1 1-2.657-2.657c1.46 0 2.657 1.181 2.657 2.657Zm2.02 5.454H2.315a.78.78 0 0 1-.777-.777V6.063H3.03c-.155.45-.249.916-.249 1.43a4.201 4.201 0 0 0 4.211 4.195 4.198 4.198 0 0 0 3.947-5.625h1.492v6.106a.747.747 0 0 1-.762.777Z" fill="#DDDDE1"/></svg>