<svg width="108" height="28" fill="none" xmlns="http://www.w3.org/2000/svg"><path d="M.8 1h12.6c2.1 0 3.62.48 4.56 1.44.96.94 1.44 2.46 1.44 4.56v2.7c0 1.66-.28 2.95-.84 3.87-.54.92-1.41 1.53-2.61 1.83L19.7 22h-5.85l-3.45-6.3H6.2V22H.8V1ZM14 7c0-1.2-.6-1.8-1.8-1.8h-6v6.3h6c1.2 0 1.8-.6 1.8-1.8V7Zm14.692-.3V22h-5.25V10.75h-2.25V6.7h7.5Zm-5.25-6h5.25v4.2h-5.25V.7ZM42.952 22l-.3-1.5c-.94.62-1.91 1.08-2.91 1.38-.98.28-1.81.42-2.49.42h-1.35c-1.36 0-2.45-.41-3.27-1.23-.82-.82-1.23-1.91-1.23-3.27v-6.9c0-1.5.42-2.67 1.26-3.51.86-.86 2.04-1.29 3.54-1.29h6.15V1h5.25v21h-4.65Zm-4.2-4.05c1.06 0 2.26-.2 3.6-.6v-7.2h-4.5c-.8 0-1.2.4-1.2 1.2v5.55c0 .3.1.55.3.75.2.2.45.3.75.3h1.05Zm17.996-8.4c-.8 0-1.2.4-1.2 1.2v1.65h5.1v-1.65c0-.8-.4-1.2-1.2-1.2h-2.7Zm8.55 12.15c-3.86.4-7.36.6-10.5.6-1.36 0-2.45-.41-3.27-1.23-.82-.82-1.23-1.91-1.23-3.27v-7.2c0-1.5.42-2.67 1.26-3.51.86-.86 2.04-1.29 3.54-1.29h6c1.5 0 2.67.43 3.51 1.29.86.84 1.29 2.01 1.29 3.51v5.55h-10.35v1.2c0 .3.1.55.3.75.2.2.45.3.75.3 1.98 0 4.88-.15 8.7-.45v3.75Zm12.438-11.25c-1.26 0-2.56.3-3.9.9V22h-5.25V6.1h4.65l.3 1.95c1.72-1.5 3.52-2.25 5.4-2.25h1.35v4.65h-2.55ZM90.485 22c-1.34.2-2.62.3-3.84.3-1.2 0-2.21-.41-3.03-1.23-.82-.82-1.23-1.91-1.23-3.27V1h5.25v16.05c0 .3.1.55.3.75.2.2.45.3.75.3h1.8V22Zm5.094 5.4c-1.06 0-2.36-.1-3.9-.3v-3.9h2.7c.76 0 1.25-.21 1.47-.63.24-.42.2-1.01-.12-1.77l-6.15-14.7h5.55l3.75 10.2 3.15-10.2h5.55l-6 16.5c-.58 1.58-1.33 2.77-2.25 3.57-.92.82-2.17 1.23-3.75 1.23Z" fill="#fff"/></svg>