<svg width="101" height="26" fill="none" xmlns="http://www.w3.org/2000/svg"><path d="M.68.454h11.76c1.96 0 3.379.448 4.256 1.344.896.878 1.344 2.296 1.344 4.256v2.52c0 1.55-.261 2.754-.784 3.612-.504.859-1.316 1.428-2.436 1.708l3.5 6.16h-5.46l-3.22-5.88H5.72v5.88H.68V.454ZM13 6.054c0-1.12-.56-1.68-1.68-1.68h-5.6v5.88h5.6c1.12 0 1.68-.56 1.68-1.68v-2.52Zm13.712-.28v14.28h-4.9v-10.5h-2.1v-3.78h7Zm-4.9-5.6h4.9v3.92h-4.9V.174Zm18.21 19.88-.28-1.4a10.3 10.3 0 0 1-2.717 1.288c-.915.261-1.69.392-2.324.392h-1.26c-1.27 0-2.287-.383-3.052-1.148-.765-.765-1.148-1.782-1.148-3.052v-6.44c0-1.4.392-2.492 1.176-3.276.803-.802 1.904-1.204 3.304-1.204h5.74V.454h4.9v19.6h-4.34Zm-3.92-3.78c.988 0 2.108-.187 3.36-.56v-6.72h-4.2c-.748 0-1.12.374-1.12 1.12v5.18c0 .28.092.513.28.7a.95.95 0 0 0 .7.28h.98Zm16.796-7.84c-.747 0-1.12.374-1.12 1.12v1.54h4.76v-1.54c0-.746-.373-1.12-1.12-1.12h-2.52Zm7.98 11.34c-3.603.373-6.87.56-9.8.56-1.27 0-2.287-.383-3.052-1.148-.766-.765-1.148-1.782-1.148-3.052v-6.72c0-1.4.392-2.492 1.176-3.276.802-.802 1.904-1.204 3.304-1.204h5.6c1.4 0 2.492.402 3.276 1.204.802.784 1.204 1.876 1.204 3.276v5.18h-9.66v1.12c0 .28.093.513.28.7a.95.95 0 0 0 .7.28c1.848 0 4.554-.14 8.12-.42v3.5Zm11.609-10.5c-1.176 0-2.39.28-3.64.84v9.94h-4.9V5.214h4.34l.28 1.82c1.605-1.4 3.285-2.1 5.04-2.1h1.26v4.34h-2.38Zm11.899 10.78a24.3 24.3 0 0 1-3.584.28c-1.12 0-2.063-.383-2.828-1.148-.766-.765-1.148-1.782-1.148-3.052V.454h4.9v14.98c0 .28.093.514.28.7a.95.95 0 0 0 .7.28h1.68v3.64Zm4.754 5.04c-.989 0-2.202-.093-3.64-.28v-3.64h2.52c.71 0 1.167-.196 1.372-.588.224-.392.187-.942-.112-1.652l-5.74-13.72h5.18l3.5 9.52 2.94-9.52h5.18l-5.6 15.4c-.541 1.475-1.241 2.585-2.1 3.332-.858.765-2.025 1.148-3.5 1.148Z" fill="#3A3A41"/></svg>