<svg width="15" height="11" fill="none" xmlns="http://www.w3.org/2000/svg"><path d="m14.668 1.929.019.115A1.846 1.846 0 0 0 13.394.802l-.013-.003C12.211.5 7.506.5 7.506.5S2.813.494 1.631.799C.998.972.508 1.439.33 2.032l-.004.012c-.436 2.148-.44 4.728.02 7.028l-.02-.117c.182.606.671 1.073 1.293 1.243l.013.003c1.168.299 5.875.299 5.875.299s4.693 0 5.875-.3c.634-.172 1.124-.64 1.302-1.232l.004-.013c.198-.999.312-2.148.312-3.322v-.265c0-1.175-.114-2.324-.332-3.44ZM6.005 7.648v-4.29l3.916 2.148-3.916 2.142Z" fill="#DDDDE1"/></svg>